# This file uses centimeters as units for non-parametric coordinates.

mtllib ETH.mtl
g default
v 0.000000 1.842672 -1.000000
v -1.000000 1.842672 0.000000
v 0.000000 1.842672 1.000000
v 1.000000 1.842672 -0.000000
v 0.000000 3.843818 0.000000
v 0.000000 -0.158474 0.000000
vt 0.250000 0.500000
vt 0.375000 0.500000
vt 0.500000 0.500000
vt 0.625000 0.500000
vt 0.750000 0.500000
vt 0.500000 1.000000
vt 0.250000 0.500000
vt 0.375000 0.500000
vt 0.500000 1.000000
vt 0.500000 0.500000
vt 0.625000 0.500000
vt 0.750000 0.500000
vn -0.666709 0.333164 -0.666709
vn -0.666709 0.333164 -0.666709
vn -0.666709 0.333164 -0.666709
vn -0.666709 0.333164 0.666709
vn -0.666709 0.333164 0.666709
vn -0.666709 0.333164 0.666709
vn 0.666709 0.333164 0.666709
vn 0.666709 0.333164 0.666709
vn 0.666709 0.333164 0.666709
vn 0.666709 0.333164 -0.666709
vn 0.666709 0.333164 -0.666709
vn 0.666709 0.333164 -0.666709
vn -0.666709 -0.333164 0.666709
vn -0.666709 -0.333164 0.666709
vn -0.666709 -0.333164 0.666709
vn -0.666709 -0.333164 -0.666709
vn -0.666709 -0.333164 -0.666709
vn -0.666709 -0.333164 -0.666709
vn 0.666709 -0.333164 -0.666709
vn 0.666709 -0.333164 -0.666709
vn 0.666709 -0.333164 -0.666709
vn 0.666709 -0.333164 0.666709
vn 0.666709 -0.333164 0.666709
vn 0.666709 -0.333164 0.666709
s off
g pCone3
usemtl initialShadingGroup
f 1/1/1 2/2/2 5/6/3
f 2/2/4 3/3/5 5/6/6
f 3/3/7 4/4/8 5/6/9
f 4/4/10 1/5/11 5/6/12
f 3/7/13 2/8/14 6/9/15
f 2/8/16 1/10/17 6/9/18
f 1/10/19 4/11/20 6/9/21
f 4/11/22 3/12/23 6/9/24
